HIERARCHY
ROOT root
{
	OFFSET 0.000000 0.000000 0.000000
	CHANNELS 6 Xposition Yposition Zposition Zrotation Yrotation Xrotation
	JOINT lhip
	{
		OFFSET 0.058581 -0.082280 -0.017664
		CHANNELS 3 Zrotation Yrotation Xrotation
		JOINT lknee
		{
			OFFSET 0.043451 -0.386469 0.008037
			CHANNELS 3 Zrotation Yrotation Xrotation
			JOINT lankle
			{
				OFFSET -0.014790 -0.426874 -0.037428
				CHANNELS 3 Zrotation Yrotation Xrotation
				JOINT ltoe
				{
					OFFSET 0.041054 -0.060286 0.122042
					CHANNELS 3 Zrotation Yrotation Xrotation
					End Site
					{
						OFFSET 0.000000 0.000000 0.000000
					}
				}
			}
		}
	}
	JOINT rhip
	{
		OFFSET -0.060310 -0.090513 -0.013543
		CHANNELS 3 Zrotation Yrotation Xrotation
		JOINT rknee
		{
			OFFSET -0.043257 -0.383688 -0.004843
			CHANNELS 3 Zrotation Yrotation Xrotation
			JOINT rankle
			{
				OFFSET 0.019056 -0.420046 -0.034562
				CHANNELS 3 Zrotation Yrotation Xrotation
				JOINT rtoe
				{
					OFFSET -0.034840 -0.062106 0.130323
					CHANNELS 3 Zrotation Yrotation Xrotation
					End Site
					{
						OFFSET 0.000000 0.000000 0.000000
					}
				}
			}
		}
	}
	JOINT lowerback
	{
		OFFSET 0.004439 0.124404 -0.038385
		CHANNELS 3 Zrotation Yrotation Xrotation
		JOINT upperback
		{
			OFFSET 0.004488 0.137956 0.026820
			CHANNELS 3 Zrotation Yrotation Xrotation
			JOINT chest
			{
				OFFSET -0.002265 0.056032 0.002855
				CHANNELS 3 Zrotation Yrotation Xrotation
				JOINT lowerneck
				{
					OFFSET -0.013390 0.211636 -0.033468
					CHANNELS 3 Zrotation Yrotation Xrotation
					JOINT upperneck
					{
						OFFSET 0.010113 0.088937 0.050410
						CHANNELS 3 Zrotation Yrotation Xrotation
						End Site
						{
							OFFSET 0.000000 0.000000 0.000000
						}
					}
				}
				JOINT lclavicle
				{
					OFFSET 0.071702 0.114000 -0.018898
					CHANNELS 3 Zrotation Yrotation Xrotation
					JOINT lshoulder
					{
						OFFSET 0.122921 0.045205 -0.019046
						CHANNELS 3 Zrotation Yrotation Xrotation
						JOINT lelbow
						{
							OFFSET 0.255332 -0.015649 -0.022946
							CHANNELS 3 Zrotation Yrotation Xrotation
							JOINT lwrist
							{
								OFFSET 0.265709 0.012698 -0.007375
								CHANNELS 3 Zrotation Yrotation Xrotation
								End Site
								{
									OFFSET 0.000000 0.000000 0.000000
								}
							}
						}
					}
				}
				JOINT rclavicle
				{
					OFFSET -0.082954 0.112472 -0.023707
					CHANNELS 3 Zrotation Yrotation Xrotation
					JOINT rshoulder
					{
						OFFSET -0.113228 0.046853 -0.008472
						CHANNELS 3 Zrotation Yrotation Xrotation
						JOINT relbow
						{
							OFFSET -0.260127 -0.014369 -0.031269
							CHANNELS 3 Zrotation Yrotation Xrotation
							JOINT rwrist
							{
								OFFSET -0.269108 0.006794 -0.006027
								CHANNELS 3 Zrotation Yrotation Xrotation
								End Site
								{
									OFFSET 0.000000 0.000000 0.000000
								}
							}
						}
					}
				}
			}
		}
	}
}
MOTION
Frames: 9
Frame Time: 0.033333
1.205802 1.163907 0.985746 -89.582773 3.329183 85.429481 0.495518 -1.294791 6.319443 -2.928888 -14.658942 3.041966 4.731104 9.271174 -17.135607 0.000000 -0.000000 0.000000 3.883394 -2.394341 3.673335 4.088907 3.753661 7.131816 0.689555 -3.209280 -12.159637 0.000000 -0.000000 0.000000 -2.048065 3.144071 2.708076 2.715932 -1.539879 3.306149 2.107063 -0.930689 4.308645 5.036257 2.576985 4.246975 2.299765 -1.551895 10.879244 -24.993469 2.887325 3.419953 -63.983592 -7.272641 9.711107 10.153787 -26.947767 5.181373 -1.140174 -2.297403 -8.908944 23.054937 -2.276201 3.189116 61.552561 3.555508 11.032008 -17.016070 26.856076 -3.360258 6.314405 0.060362 -8.823123 
1.205818 1.164178 0.985511 -89.614514 3.244464 85.552858 0.365820 -1.535985 6.252508 -2.839290 -14.712845 2.878691 4.676598 9.548073 -16.865139 0.000000 -0.000000 0.000000 3.811199 -2.101641 3.501686 4.196625 3.787823 7.188070 0.859007 -3.473742 -12.285649 0.000000 -0.000000 0.000000 -2.026261 3.153172 2.415317 2.635305 -1.437871 3.337861 2.014509 -0.902270 4.401773 5.037897 2.616959 3.902050 2.303508 -1.572005 10.476913 -24.738410 2.830923 3.063061 -63.909245 -7.580027 9.981953 9.756860 -27.237217 5.744574 -1.312835 -2.115638 -9.303248 22.715114 -2.319010 3.008891 61.859810 3.564109 11.228845 -16.950386 27.090600 -3.196840 6.701089 -0.341771 -9.231373 
1.205883 1.164879 0.985615 -89.514909 3.180459 85.555197 0.326833 -1.707238 6.225386 -2.824889 -14.644461 2.905430 4.625734 9.554591 -16.966571 0.000000 -0.000000 0.000000 3.800534 -1.970653 3.507872 4.196684 3.571928 7.205663 0.843067 -3.410830 -12.422862 0.000000 -0.000000 0.000000 -2.137127 3.168751 2.427038 2.593831 -1.438104 3.292085 2.101375 -0.946101 4.294239 4.789087 2.788370 3.875319 2.260482 -1.406243 10.072906 -24.647084 2.722300 3.172607 -64.168720 -7.499043 9.986908 10.266920 -27.851738 5.267353 -1.151619 -2.158630 -9.253836 22.742180 -2.226529 3.033393 61.793527 3.634146 11.144159 -17.057848 27.169772 -3.262080 6.352129 -0.201585 -9.016126 
1.205590 1.165691 0.985496 -89.413165 3.133507 85.536158 0.334892 -1.859482 6.196239 -2.891175 -14.561127 3.052426 4.499012 9.446296 -17.096385 0.000000 -0.000000 0.000000 3.867367 -1.893903 3.558040 4.112280 3.626129 7.231582 0.856429 -3.568965 -12.432617 0.000000 -0.000000 0.000000 -2.207862 3.195288 2.281905 2.622556 -1.415124 3.440250 2.140680 -0.969657 4.299268 4.813335 2.679900 3.279651 2.350741 -1.565441 10.126477 -24.723060 2.656336 3.090358 -64.203074 -7.826991 10.060654 10.587962 -27.728448 4.685823 -1.541056 -1.968554 -9.331741 22.933661 -2.109097 2.897147 61.440196 3.928711 11.271169 -16.328477 26.179350 -3.196468 7.504947 -0.150067 -9.189033 
1.204850 1.166450 0.984962 -89.281502 3.156450 85.544774 0.410743 -1.864541 6.196667 -2.917855 -14.465944 3.229106 4.588604 9.326929 -17.283307 0.000000 -0.000000 0.000000 3.939631 -1.936870 3.531595 4.069755 3.534789 7.411378 0.819742 -3.667212 -12.570833 0.000000 -0.000000 0.000000 -2.167421 3.122190 2.310981 2.615842 -1.385247 3.324103 2.140737 -0.993974 4.299357 4.825666 2.480595 3.222719 2.215949 -1.547982 10.194697 -24.724609 2.649462 3.289188 -64.394775 -7.967272 10.111039 10.819920 -27.510689 4.574268 -1.504616 -2.127434 -9.468715 22.969418 -2.073314 3.020652 61.554349 4.168788 11.307400 -16.013766 25.806211 -3.273062 7.449650 0.169749 -9.620736 
1.204223 1.167814 0.984573 -89.260020 3.197833 85.544987 0.532610 -1.826156 6.159802 -2.904297 -14.464604 3.380184 4.507927 9.226261 -17.249708 0.000000 -0.000000 0.000000 4.111504 -1.843212 3.609541 3.975734 3.584660 7.412937 0.758513 -3.696342 -12.589437 0.000000 -0.000000 0.000000 -2.160949 3.195475 2.250778 2.678042 -1.316042 3.360163 2.129568 -0.936990 4.303843 4.872615 2.383842 2.723840 2.211823 -1.908662 10.246569 -24.822783 2.625792 3.188460 -64.161223 -8.198783 10.098014 10.451465 -26.786548 4.906900 -1.597007 -2.256377 -9.314839 22.859391 -2.149179 2.923680 61.942212 4.012317 11.308988 -16.159209 25.346599 -3.311875 7.440154 0.329980 -9.999843 
1.203059 1.168487 0.984330 -89.005404 3.224880 85.484080 0.614983 -1.764163 6.202198 -2.940731 -14.679085 3.610374 4.510207 9.162655 -17.411935 0.000000 -0.000000 0.000000 4.116588 -2.091344 3.934851 4.092576 3.706565 7.102866 0.612640 -3.792264 -12.430942 0.000000 -0.000000 0.000000 -2.116495 3.091421 2.180884 2.624152 -1.468381 3.441756 2.078513 -0.882209 4.322653 4.859356 2.497107 2.592652 2.395767 -1.911528 10.002542 -24.709129 2.631164 3.138828 -64.099438 -8.291394 10.057218 10.170132 -25.912889 5.326651 -1.675004 -2.323663 -9.513439 22.936298 -2.064198 2.959157 62.145097 3.958575 11.233295 -15.984589 24.565801 -3.211224 7.450261 0.291963 -10.290112 
1.203614 1.169264 0.984364 -89.010303 3.030751 85.444552 0.434678 -1.865134 6.106019 -3.015733 -14.592045 3.846205 4.525902 9.187576 -17.476637 0.000000 -0.000000 0.000000 3.976423 -1.894744 3.843866 4.057648 3.479677 7.351416 0.716281 -3.680788 -12.695971 0.000000 -0.000000 0.000000 -2.321889 3.240130 2.386649 2.589555 -1.507486 3.374280 2.158024 -0.958219 4.156929 4.841507 2.458787 2.821336 2.448429 -1.934024 9.873824 -24.735824 2.718008 3.415119 -64.361859 -7.886421 9.926501 10.835019 -25.701206 4.590576 -1.643090 -2.088489 -9.044268 22.930221 -2.002140 3.113514 62.235357 3.727784 11.137636 -16.000547 23.945403 -3.320635 7.551047 0.271866 -10.254959 
1.202185 1.170439 0.983991 -89.105967 3.108416 85.384969 0.652843 -1.589574 6.293613 -3.032518 -14.756472 3.783531 4.606809 9.214724 -17.599583 0.000000 -0.000000 0.000000 4.065297 -2.134572 4.099282 4.101008 3.618110 7.188903 0.493044 -3.594922 -12.684972 0.000000 -0.000000 0.000000 -2.270264 3.121784 2.120501 2.635449 -1.450845 3.607830 2.155106 -0.867801 4.082009 4.865386 2.043518 3.186737 2.416234 -2.042751 9.520332 -24.769937 2.779623 3.730789 -64.357025 -7.561037 9.665784 10.904082 -25.102290 4.629645 -1.716209 -2.000317 -8.999704 22.846070 -2.015256 3.431633 62.412033 3.475439 10.840264 -15.755502 23.710063 -3.196749 7.685815 0.009916 -10.463831 
